<svg width="65" height="46" viewBox="0 0 65 46" fill="none" xmlns="http://www.w3.org/2000/svg">
<path d="M7.5 18H55C56.1046 18 57 18.8954 57 20V42C57 43.1046 56.1046 44 55 44H9.5C8.39543 44 7.5 43.1046 7.5 42V18ZM7.5 18H4C2.89543 18 2 17.1046 2 16V4C2 2.89543 2.89543 2 4 2H61C62.1046 2 63 2.89543 63 4V16C63 17.1046 62.1046 18 61 18H7.5ZM45.9 8.3V8.3C46.7 8.9 46.7 10.1 45.9 10.7V10.7C45.6404 10.8947 45.3246 11 45 11H19.5C19.1754 11 18.8596 10.8947 18.6 10.7V10.7C17.8 10.1 17.8 8.9 18.6 8.3V8.3C18.8596 8.10527 19.1754 8 19.5 8H45C45.3246 8 45.6404 8.10527 45.9 8.3Z" stroke="#333333" stroke-width="4"/>
</svg>
